# xmcd
#
# Track frame offsets:
#	150
#	15620
#	30912
#	49110
#
# Disc length: 920 seconds
#
# Revision: 1
# Processed by: cddbd v1.5.1PL0 Copyright (c) Steve Scherf et al.
# Submitted via: EasyCDDAExtractor 7.0.6.1
#
DISCID=22039604
DTITLE=Dogs Breakfast - The City Is Mine
DYEAR=2003
DGENRE=Rap
TTITLE0=The City Is Mine
TTITLE1=A Million And One Questions
TTITLE2=The City Is Mine (Album)
TTITLE3=Dead Presidents II
EXTD=YEAR: 2003\n
EXTT0=
EXTT1=
EXTT2=
EXTT3=
PLAYORDER=
